<?xml version="1.0" encoding="UTF-8" standalone="no"?>
<svg width="600" height="400" viewBox="0 0 600 400" fill="none" xmlns="http://www.w3.org/2000/svg">
  <!-- Background elements -->
  <rect x="50" y="220" width="500" height="10" rx="5" fill="#EEEEEE"/>
  
  <!-- 404 Text -->
  <path d="M150 100H170V200H150V100Z" fill="#0d6efd"/>
  <path d="M170 100H230V120H170V100Z" fill="#0d6efd"/>
  <path d="M170 140H230V160H170V140Z" fill="#0d6efd"/>
  <path d="M210 100H230V200H210V100Z" fill="#0d6efd"/>
  
  <path d="M250 100H330V120H250V100Z" fill="#0d6efd"/>
  <path d="M250 140H330V160H250V140Z" fill="#0d6efd"/>
  <path d="M250 180H330V200H250V180Z" fill="#0d6efd"/>
  <path d="M290 100H310V200H290V100Z" fill="#0d6efd"/>
  
  <path d="M350 100H370V200H350V100Z" fill="#0d6efd"/>
  <path d="M370 100H430V120H370V100Z" fill="#0d6efd"/>
  <path d="M370 140H430V160H370V140Z" fill="#0d6efd"/>
  <path d="M410 100H430V200H410V100Z" fill="#0d6efd"/>
  
  <!-- Person figure -->
  <circle cx="300" cy="280" r="25" fill="#0d6efd"/>
  <path d="M300 305L300 350" stroke="#0d6efd" stroke-width="8" stroke-linecap="round"/>
  <path d="M280 325L300 350L320 325" stroke="#0d6efd" stroke-width="8" stroke-linecap="round" stroke-linejoin="round"/>
  
  <!-- Magnifying glass -->
  <circle cx="400" cy="150" r="30" stroke="#666666" stroke-width="8" fill="none"/>
  <line x1="422" y1="172" x2="450" y2="200" stroke="#666666" stroke-width="8" stroke-linecap="round"/>
  
  <!-- Question marks -->
  <text x="180" y="270" font-family="Arial" font-size="40" font-weight="bold" fill="#999999">?</text>
  <text x="390" y="270" font-family="Arial" font-size="40" font-weight="bold" fill="#999999">?</text>
  
  <!-- Decorative elements -->
  <circle cx="150" cy="150" r="10" fill="#EEEEEE"/>
  <circle cx="450" cy="120" r="15" fill="#EEEEEE"/>
  <circle cx="180" cy="200" r="8" fill="#EEEEEE"/>
  <circle cx="420" cy="90" r="12" fill="#EEEEEE"/>
</svg>
